#include "music.h"
#define RIT_SEMIMINIMA 8
#define RIT_MINIMA 16
#define RIT_INTERA 32

#define UPTICKS 1


//SHORTENING UNDERTALE: TOO MANY REPETITIONS
/*
NOTE song[] = 
{
	// 1
	{d3, time_semicroma},
	{d3, time_semicroma},
	{d4, time_croma},
	{a3, time_croma},
	{pause, time_semicroma},
	{a3b, time_semicroma},
	{pause, time_semicroma},
	{g3, time_croma},
	{f3, time_semicroma*2},
	{d3, time_semicroma},
	{f3, time_semicroma},
	{g3, time_semicroma},
	// 2
	{c3, time_semicroma},
	{c3, time_semicroma},
	{d4, time_croma},
	{a3, time_croma},
	{pause, time_semicroma},
	{a3b, time_semicroma},
	{pause, time_semicroma},
	{g3, time_croma},
	{f3, time_semicroma*2},
	{d3, time_semicroma},
	{f3, time_semicroma},
	{g3, time_semicroma},
	// 3
	{c3b, time_semicroma},
	{c3b, time_semicroma},
	{d4, time_croma},
	{a3, time_croma},
	{pause, time_semicroma},
	{a3b, time_semicroma},
	{pause, time_semicroma},
	{g3, time_croma},
	{f3, time_semicroma*2},
	{d3, time_semicroma},
	{f3, time_semicroma},
	{g3, time_semicroma},
	// 4
	{a2b, time_semicroma},
	{a2b, time_semicroma},
	{d4, time_croma},
	{a3, time_croma},
	{pause, time_semicroma},
	{a3b, time_semicroma},
	{pause, time_semicroma},
	{g3, time_croma},
	{f3, time_semicroma*2},
	{d3, time_semicroma},
	{f3, time_semicroma},
	{g3, time_semicroma},
	// 5
	
};
*/

////SONG Pacman Intro Theme
NOTE song[] = {
	{NOTE_B4, 16},
	{NOTE_B5, 16},
	{NOTE_FS5, -16}, //dotted
	{NOTE_DS5, 16}, //1
	
  {NOTE_B5, 32},
	{NOTE_FS5, 16},
	{NOTE_DS5, 8},
	{NOTE_C5, 16,},
	{NOTE_C6, 16},
	{NOTE_G6, 16},
	{NOTE_E6, 16},
	{NOTE_C6, 32},
	{NOTE_G6, -16}, //dotted
	{NOTE_E6, 8},

  {NOTE_B4, 16},
  {NOTE_B5, 16},
	{NOTE_FS5, 16},
	{NOTE_DS5, 16},  
	{NOTE_B5, 32},  //2
	
  {NOTE_FS5, -16}, //dotted
	{NOTE_DS5, 8},
  {NOTE_DS5, 32}, 
	{NOTE_E5, 32},  
	{NOTE_F5, 32},
	{NOTE_F5, 32},
  {NOTE_FS5, 32},
  {NOTE_G5, 32},  
	{NOTE_G5, 32}, 
	{NOTE_GS5, 32},  
	{NOTE_A5, 16}, 
	{NOTE_B5, 8}
};
/* waka */
NOTE pacman_eat[] = { //very simple, the cpu is buzy doing other stuff,
    {NOTE_D5, 128}, // Start at a lower pitch
    {NOTE_F5, 128}, // Quickly rise to a higher pitch
    {NOTE_E5, 128}, // Fall back slightly
    {REST, 128} //A short rest for silence
};
/* 1 UP */
NOTE pacman_1up[] = { //very simple, the cpu is buzy doing other stuff,
    {NOTE_D6, 32}, // Start at a lower pitch
    {NOTE_F6, 32}, // Quickly rise to a higher pitch
    {NOTE_B6, 32},
    {REST, 32} //A short rest for silence
};
/* flee */ 
NOTE ghost_flee[] = {
    {NOTE_E4, 64}, // Start at a relatively low pitch
    {NOTE_G4, 64},
    {NOTE_B4, 64},
    {NOTE_D5, 64},
    {NOTE_F5, 64},    
    {NOTE_A5, 64}, // End at a higher pitch
    {REST, 64} // Short pause at the end
};

/* Blinky is coming */
NOTE ghost_chase[] = {
    {NOTE_E4, 32}, // Start with E4
    {NOTE_D4, 32}, // Go down to D4
    {NOTE_C4, 32}, // Then to C4
    {NOTE_D4, 32},    // And back to D4
    {NOTE_E4, 32}, // Repeat the first note
    {NOTE_F4, 32}, // Go up to F4
    {NOTE_E4, 32}, // And come back to E4
    {NOTE_D4, 32}, // End with D4
    {REST, 32} //short rest for silence
};

/* Gnam */
NOTE ghost_eaten[] = {
    {NOTE_E5, 32}, // Start high
    {NOTE_D5, 32},
    {NOTE_C5, 32},
    {NOTE_B4, 32},
    {NOTE_A4, 32}, // Descend to a lower pitch
    {REST, 32} // A short rest for silence
};

/* Death */
NOTE pacman_dies[] = {
    {NOTE_E5, 16}, // Start high
    {NOTE_DS5, 16},
    {NOTE_D5, 16},
    {NOTE_CS5, 16},
    {NOTE_C5, 16},
    {NOTE_B4, 16},
    {NOTE_AS4, 16},
    {NOTE_A4, 16},
    {NOTE_GS4, 16},
    {NOTE_G4, 16},
    {REST, 8} // Longer rest at the end
};


//MII theme
NOTE mii[] = {
    {NOTE_FS4, 8},
    {REST, 8},
    {NOTE_A4, 8},
    {NOTE_CS5, 8},
    {REST, 8},
    {NOTE_A4, 8},
    {REST, 8},
    {NOTE_FS4, 8},
    {NOTE_D4, 8},
    {NOTE_D4, 8},
    {NOTE_D4, 8},
    {REST, 8},
    {REST, 4},
    {REST, 8},
    {NOTE_CS4, 8},
    {NOTE_D4, 8},
    {NOTE_FS4, 8},
    {NOTE_A4, 8},
    {NOTE_CS5, 8},
    {REST, 8},
    {NOTE_A4, 8},
    {REST, 8},
    {NOTE_F4, 8},
    {NOTE_E5, -4},
    {NOTE_DS5, 8},
    {NOTE_D5, 8},
    {REST, 8},
    {REST, 4},
    {NOTE_GS4, 8},
    {REST, 8},
    {NOTE_CS5, 8},
    {NOTE_FS4, 8},
    {REST, 8},
    {NOTE_CS5, 8},
    {REST, 8},
    {NOTE_GS4, 8},
    {REST, 8},
    {NOTE_CS5, 8},
    {NOTE_G4, 8},
    {NOTE_FS4, 8},
    {REST, 8},
    {NOTE_E4, 8},
    {REST, 8},
    {NOTE_E4, 8},
    {NOTE_E4, 8},
    {NOTE_E4, 8},
    {REST, 8},
    {REST, 4},
    {NOTE_E4, 8},
    {NOTE_E4, 8},
    {NOTE_E4, 8},
    {REST, 8},
    {REST, 4},
    {NOTE_DS4, 8},
    {NOTE_D4, 8},
    {NOTE_CS4, 8},
    {REST, 8},
    {NOTE_A4, 8},
    {NOTE_CS5, 8},
    {REST, 8},
    {NOTE_A4, 8},
    {REST, 8},
    {NOTE_FS4, 8},
    {NOTE_D4, 8},
    {NOTE_D4, 8},
    {NOTE_D4, 8},
    {REST, 8},
    {NOTE_E5, 8},
    {NOTE_E5, 8},
    {NOTE_E5, 8},
    {REST, 8},
    {REST, 8},
    {NOTE_FS4, 8},
    {NOTE_A4, 8},
    {NOTE_CS5, 8},
    {REST, 8},
    {NOTE_A4, 8},
    {REST, 8},
    {NOTE_F4, 8},
    {NOTE_E5, 2},
    {NOTE_D5, 8},
    {REST, 8},
    {REST, 4},
    {NOTE_B4, 8},
    {NOTE_G4, 8},
    {NOTE_D4, 8},
    {NOTE_CS4, 4},
    {NOTE_B4, 8},
    {NOTE_G4, 8},
    {NOTE_CS4, 8},
    {NOTE_A4, 8},
    {NOTE_FS4, 8},
    {NOTE_C4, 8},
    {NOTE_B3, 4},
    {NOTE_F4, 8},
    {NOTE_D4, 8},
    {NOTE_B3, 8},
    {NOTE_E4, 8},
    {NOTE_E4, 8},
    {NOTE_E4, 8},
    {REST, 4},
    {REST, 4},
    {NOTE_AS4, 4},
    {NOTE_CS5, 8},
    {NOTE_D5, 8},
    {NOTE_FS5, 8},
    {NOTE_A5, 8},
    {REST, 8},
    {REST, 4},
    {REST, 2},
    {NOTE_A3, 4},
    {NOTE_AS3, 4},
    {NOTE_A3, -4},
    {NOTE_A3, 8},
    {NOTE_A3, 2},
    {REST, 4},
    {NOTE_A3, 8},
    {NOTE_AS3, 8},
    {NOTE_A3, 8},
    {NOTE_F4, 4},
    {NOTE_C4, 8},
    {NOTE_A3, -4},
    {NOTE_A3, 8},
    {NOTE_A3, 2},
    {REST, 2},
    {NOTE_B3, 4},
    {NOTE_C4, 4},
    {NOTE_CS4, -4},
    {NOTE_C4, 8},
    {NOTE_CS4, 2},
    {REST, 4},
    {NOTE_CS4, 8},
    {NOTE_C4, 8},
    {NOTE_CS4, 8},
    {NOTE_GS4, 4},
    {NOTE_DS4, 8},
    {NOTE_CS4, -4},
    {NOTE_DS4, 8},
    {NOTE_B3, 1},
    {NOTE_E4, 4},
    {NOTE_E4, 4},
    {NOTE_E4, 4},
    {REST, 8},
    {NOTE_FS4, 8},
    {REST, 8},
    {NOTE_A4, 8},
    {NOTE_CS5, 8},
    {REST, 8},
    {NOTE_A4, 8},
    {REST, 8},
    {NOTE_FS4, 8},
    {NOTE_D4, 8},
    {NOTE_D4, 8},
    {NOTE_D4, 8},
    {REST, 8},
    {REST, 4},
    {REST, 8},
    {NOTE_CS4, 8},
    {NOTE_D4, 8},
    {NOTE_FS4, 8},
    {NOTE_A4, 8},
    {NOTE_CS5, 8},
    {REST, 8},
    {NOTE_A4, 8},
    {REST, 8},
    {NOTE_F4, 8},
    {NOTE_E5, -4},
    {NOTE_DS5, 8},
    {NOTE_D5, 8},
    {REST, 8},
    {REST, 4},
    {NOTE_GS4, 8},
    {REST, 8},
    {NOTE_CS5, 8},
    {NOTE_FS4, 8},
    {REST, 8},
    {NOTE_CS5, 8},
    {REST, 8},
    {NOTE_GS4, 8},
    {REST, 8},
    {NOTE_CS5, 8},
    {NOTE_G4, 8},
    {NOTE_FS4, 8},
    {REST, 8},
    {NOTE_E4, 8},
    {REST, 8},
    {NOTE_E4, 8},
    {NOTE_E4, 8},
    {NOTE_E4, 8},
    {REST, 8},
    {REST, 4},
    {NOTE_E4, 8},
    {NOTE_E4, 8},
    {NOTE_E4, 8},
    {REST, 8},
    {REST, 4},
    {NOTE_DS4, 8},
		{NOTE_D4, 8},
    {NOTE_CS4, 8},
    {REST, 8},
    {NOTE_A4, 8},
    {NOTE_CS5, 8},
    {REST, 8},
    {NOTE_A4, 8},
    {REST, 8},
    {NOTE_FS4, 8},
    {NOTE_D4, 8},
    {NOTE_D4, 8},
    {NOTE_D4, 8},
    {REST, 8},
    {NOTE_E5, 8},
    {NOTE_E5, 8},
    {NOTE_E5, 8},
    {REST, 8},
    {REST, 8},
    {NOTE_FS4, 8},
    {NOTE_A4, 8},
    {NOTE_CS5, 8},
    {REST, 8},
    {NOTE_A4, 8},
    {REST, 8},
    {NOTE_F4, 8},
    {NOTE_E5, 2},
    {NOTE_D5, 8},
    {REST, 8},
    {REST, 4},
    {NOTE_B4, 8},
    {NOTE_G4, 8},
    {NOTE_D4, 8},
    {NOTE_CS4, 4},
    {NOTE_B4, 8},
    {NOTE_G4, 8},
    {NOTE_CS4, 8},
    {NOTE_A4, 8},
    {NOTE_FS4, 8},
    {NOTE_C4, 8},
    {NOTE_B3, 4},
    {NOTE_F4, 8},
    {NOTE_D4, 8},
    {NOTE_B3, 8},
    {NOTE_E4, 8},
    {NOTE_E4, 8},
    {NOTE_E4, 8},
    {REST, 4},
    {REST, 4},
    {NOTE_AS4, 4},
    {NOTE_CS5, 8},
    {NOTE_D5, 8},
    {NOTE_FS5, 8},
    {NOTE_A5, 8},
    {REST, 8},
    {REST, 4},
    {REST, 2},
    {NOTE_A3, 4},
    {NOTE_AS3, 4},
    {NOTE_A3, -4},
    {NOTE_A3, 8},
    {NOTE_A3, 2},
    {REST, 4},
    {NOTE_A3, 8},
    {NOTE_AS3, 8},
    {NOTE_A3, 8},
    {NOTE_F4, 4},
    {NOTE_C4, 8},
    {NOTE_A3, -4},
    {NOTE_A3, 8},
    {NOTE_A3, 2},
    {REST, 2},
    {NOTE_B3, 4},
    {NOTE_C4, 4},
    {NOTE_CS4, -4},
    {NOTE_C4, 8},
    {NOTE_CS4, 2},
    {REST, 4},
    {NOTE_CS4, 8},
    {NOTE_C4, 8},
    {NOTE_CS4, 8},
    {NOTE_GS4, 4},
    {NOTE_DS4, 8},
    {NOTE_CS4, -4},
    {NOTE_DS4, 8},
    {NOTE_B3, 1},
    {NOTE_E4, 4},
    {NOTE_E4, 4},
    {NOTE_E4, 4},
    {REST, 8}
};

////neve gonna give you up
//NOTE song[] = {
//    {NOTE_D5, -4}, {NOTE_E5, -4}, {NOTE_A4, 4},
//    {NOTE_E5, -4}, {NOTE_FS5, -4}, {NOTE_A5, 16}, {NOTE_G5, 16}, {NOTE_FS5, 8},
//    {NOTE_D5, -4}, {NOTE_E5, -4}, {NOTE_A4, 2},
//    {NOTE_A4, 16}, {NOTE_A4, 16}, {NOTE_B4, 16}, {NOTE_D5, 8}, {NOTE_D5, 16},
//    {NOTE_D5, -4}, {NOTE_E5, -4}, {NOTE_A4, 4},
//    {NOTE_E5, -4}, {NOTE_FS5, -4}, {NOTE_A5, 16}, {NOTE_G5, 16}, {NOTE_FS5, 8},
//    {NOTE_D5, -4}, {NOTE_E5, -4}, {NOTE_A4, 2},
//    {NOTE_A4, 16}, {NOTE_A4, 16}, {NOTE_B4, 16}, {NOTE_D5, 8}, {NOTE_D5, 16},
//    {REST, 4}, {NOTE_B4, 8}, {NOTE_CS5, 8}, {NOTE_D5, 8}, {NOTE_D5, 8}, {NOTE_E5, 8}, {NOTE_CS5, -8},
//    {NOTE_B4, 16}, {NOTE_A4, 2}, {REST, 4},
//    {REST, 8}, {NOTE_B4, 8}, {NOTE_B4, 8}, {NOTE_CS5, 8}, {NOTE_D5, 8}, {NOTE_B4, 4}, {NOTE_A4, 8},
//    {NOTE_A5, 8}, {REST, 8}, {NOTE_A5, 8}, {NOTE_E5, -4}, {REST, 4},
//    {NOTE_B4, 8}, {NOTE_B4, 8}, {NOTE_CS5, 8}, {NOTE_D5, 8}, {NOTE_B4, 8}, {NOTE_D5, 8}, {NOTE_E5, 8}, {REST, 8},
//    {REST, 8}, {NOTE_CS5, 8}, {NOTE_B4, 8}, {NOTE_A4, -4}, {REST, 4},
//    {REST, 8}, {NOTE_B4, 8}, {NOTE_B4, 8}, {NOTE_CS5, 8}, {NOTE_D5, 8}, {NOTE_B4, 8}, {NOTE_A4, 4},
//    {NOTE_E5, 8}, {NOTE_E5, 8}, {NOTE_E5, 8}, {NOTE_FS5, 8}, {NOTE_E5, 4}, {REST, 4},
//    {NOTE_D5, 2}, {NOTE_E5, 8}, {NOTE_FS5, 8}, {NOTE_D5, 8},
//    {NOTE_E5, 8}, {NOTE_E5, 8}, {NOTE_E5, 8}, {NOTE_FS5, 8}, {NOTE_E5, 4}, {NOTE_A4, 4},
//    {REST, 2}, {NOTE_B4, 8}, {NOTE_CS5, 8}, {NOTE_D5, 8}, {NOTE_B4, 8},
//    {REST, 8}, {NOTE_E5, 8}, {NOTE_FS5, 8}, {NOTE_E5, -4}, {NOTE_A4, 16}, {NOTE_B4, 16}, {NOTE_D5, 16}, {NOTE_B4, 16},
//    {NOTE_FS5, -8}, {NOTE_FS5, -8}, {NOTE_E5, -4}, {NOTE_A4, 16}, {NOTE_B4, 16}, {NOTE_D5, 16}, {NOTE_B4, 16},
//    {NOTE_E5, -8}, {NOTE_E5, -8}, {NOTE_D5, -8}, {NOTE_CS5, 16}, {NOTE_B4, -8}, {NOTE_A4, 16}, {NOTE_B4, 16}, {NOTE_D5, 16}, {NOTE_B4, 16},
//    {NOTE_D5, 4}, {NOTE_E5, 8}, {NOTE_CS5, -8}, {NOTE_B4, 16}, {NOTE_A4, 8}, {NOTE_A4, 8}, {NOTE_A4, 8},
//    {NOTE_E5, 4}, {NOTE_D5, 2}, {NOTE_A4, 16}, {NOTE_B4, 16}, {NOTE_D5, 16}, {NOTE_B4, 16},
//    {NOTE_FS5, -8}, {NOTE_FS5, -8}, {NOTE_E5, -4}, {NOTE_A4, 16}, {NOTE_B4, 16}, {NOTE_D5, 16}, {NOTE_B4, 16},
//    {NOTE_A5, 4}, {NOTE_CS5, 8}, {NOTE_D5, -8}, {NOTE_CS5, 16}, {NOTE_B4, 8}, {NOTE_A4, 16}, {NOTE_B4, 16}, {NOTE_D5, 16}, {NOTE_B4, 16},
//    {NOTE_D5, 4}, {NOTE_E5, 8}, {NOTE_CS5, -8}, {NOTE_B4, 16}, {NOTE_A4, 4}, {NOTE_A4, 8},
//    {NOTE_E5, 4}, {NOTE_D5, 2}, {REST, 4},
//    {REST, 8}, {NOTE_B4, 8}, {NOTE_D5, 8}, {NOTE_B4, 8}, {NOTE_D5, 8}, {NOTE_E5, 4}, {REST, 8},
//    {REST, 8}, {NOTE_CS5, 8}, {NOTE_B4, 8}, {NOTE_A4, -4}, {REST, 4},
//    {REST, 8}, {NOTE_B4, 8}, {NOTE_B4, 8}, {NOTE_CS5, 8}, {NOTE_D5, 8}, {NOTE_B4, 8}, {NOTE_A4, 4},
//    {REST, 8}, {NOTE_A5, 8}, {NOTE_A5, 8}, {NOTE_E5, 8}, {NOTE_FS5, 8}, {NOTE_E5, 8}, {NOTE_D5, 8},
//    {REST, 8}, {NOTE_A4, 8}, {NOTE_B4, 8}, {NOTE_CS5, 8}, {NOTE_D5, 8}, {NOTE_B4, 8},
//    {REST, 8}, {NOTE_CS5, 8}, {NOTE_B4, 8}, {NOTE_A4, -4}, {REST, 4},
//    {NOTE_B4, 8}, {NOTE_B4, 8}, {NOTE_CS5, 8}, {NOTE_D5, 8}, {NOTE_B4, 8}, {NOTE_A4, 4}, {REST, 8},
//    {REST, 8}, {NOTE_E5, 8}, {NOTE_E5, 8}, {NOTE_FS5, 4}, {NOTE_E5, -4},
//    {NOTE_D5, 2}, {NOTE_D5, 8}, {NOTE_E5, 8}, {NOTE_FS5, 8}, {NOTE_E5, 4},
//    {NOTE_E5, 8}, {NOTE_E5, 8}, {NOTE_FS5, 8}, {NOTE_E5, 8}, {NOTE_A4, 8}, {NOTE_A4, 4},
//    {REST, -4}, {NOTE_A4, 8}, {NOTE_B4, 8}, {NOTE_CS5, 8}};